inDegrees=no
num_controls=7
num_derivatives=13
num_iterations=86
num_multipliers=7
num_parameters=0
num_slacks=7
num_states=26
objective=0.425721
objective_accelerations=0.057254
objective_balance=0.001319
objective_effort=0.014377
objective_height=0.346850
objective_ligament=0.005920
solver_duration=1242.166523
status=Solve_Succeeded
success=true
DataType=double
version=3
OpenSimVersion=4.5
endheader
time	/jointset/ground_pelvis/pelvis_tilt/value	/jointset/ground_pelvis/pelvis_tx/value	/jointset/ground_pelvis/pelvis_ty/value	/jointset/hip_l/hip_flexion_l/value	/jointset/hip_l/hip_adduction_l/value	/jointset/hip_l/hip_rotation_l/value	/jointset/back/lumbar_extension/value	/jointset/patellofemoral_l/patellar_flexion_l/value	/jointset/knee_l/knee_flexion_l/value	/jointset/knee_l/knee_adduction_l/value	/jointset/knee_l/knee_rotation_l/value	/jointset/ankle_l/ankle_angle_l/value	/jointset/subtalar_l/subtalar_angle_l/value	/jointset/ground_pelvis/pelvis_tilt/speed	/jointset/ground_pelvis/pelvis_tx/speed	/jointset/ground_pelvis/pelvis_ty/speed	/jointset/hip_l/hip_flexion_l/speed	/jointset/hip_l/hip_adduction_l/speed	/jointset/hip_l/hip_rotation_l/speed	/jointset/back/lumbar_extension/speed	/jointset/patellofemoral_l/patellar_flexion_l/speed	/jointset/knee_l/knee_flexion_l/speed	/jointset/knee_l/knee_adduction_l/speed	/jointset/knee_l/knee_rotation_l/speed	/jointset/ankle_l/ankle_angle_l/speed	/jointset/subtalar_l/subtalar_angle_l/speed	/forceset/tau_hip_flexion_l	/forceset/tau_hip_adduction_l	/forceset/tau_hip_rotation_l	/forceset/tau_knee_flexion_l	/forceset/tau_ankle_angle_l	/forceset/tau_subtalar_angle_l	/forceset/tau_lumbar_extension	lambda_cid13_p0	lambda_cid13_p1	lambda_cid13_p2	lambda_cid13_p3	lambda_cid13_p4	lambda_cid13_p5	lambda_cid14_p0	/jointset/ground_pelvis/pelvis_tilt/accel	/jointset/ground_pelvis/pelvis_tx/accel	/jointset/ground_pelvis/pelvis_ty/accel	/jointset/hip_l/hip_flexion_l/accel	/jointset/hip_l/hip_adduction_l/accel	/jointset/hip_l/hip_rotation_l/accel	/jointset/back/lumbar_extension/accel	/jointset/patellofemoral_l/patellar_flexion_l/accel	/jointset/knee_l/knee_flexion_l/accel	/jointset/knee_l/knee_adduction_l/accel	/jointset/knee_l/knee_rotation_l/accel	/jointset/ankle_l/ankle_angle_l/accel	/jointset/subtalar_l/subtalar_angle_l/accel	gamma_cid13_p0	gamma_cid13_p1	gamma_cid13_p2	gamma_cid13_p3	gamma_cid13_p4	gamma_cid13_p5	gamma_cid14_p0
1	-0.431943647000852	-0.001923362252862542	0.5981634906139225	1.674164743723394	-0.3473718203530662	0.1349563979520446	-0.4363181356781663	1.502974969045824	1.502974969045659	0.05827901722902482	-0.1745205464157007	0.4350102963385498	0.247997452608846	-0.1415578911107036	0.0007458102634496531	0.03476823753340909	0.02226359714167319	0.000253532141579978	-0.060142129049568	4.925255415024312e-05	-0.1580990580999788	-0.1580990581000115	-0.002197958110933792	-4.501296457750467e-05	-0.05237022981194601	-0.03104774812299409	-0.231688753518739	0.03778563530267212	-0.01121946920529358	-0.2944162427533863	-0.03552641097593804	0.01288898937169473	0.2043065685401521	-43.2920776204731	7.17262804654234	-7.352965188916964	7.295820021323886	-540.805619270096	-70.13893273965556	-0.02382448059524575	1.44624320028218	0.1705986734548048	1.96554469631262	-6.431220184762293	-0.2012781435413024	-1.563125292429915	-0.02120446780160333	-5.545389606796611	-5.545389606796594	-0.8251316867336284	-0.03325739035446214	-1.04318272968993	-0.9466450956424335	-2.613636665249793e-09	-1.30217446953658e-07	-4.483307586199296e-08	-9.765397807871338e-09	-7.252843703822246e-09	-1.587587229917442e-07	2.922142760574048e-09
1.01	-0.4332875999892205	-0.001907365368125066	0.5986092556784834	1.674066819709429	-0.3473787207876648	0.1342786409300901	-0.436317934983845	1.501117033763843	1.501117033763841	0.05821491306309386	-0.1745210927727091	0.43443441505838	0.2476406896018448	-0.1272258496472261	0.00245971420547015	0.05437757480049062	-0.04184169524017751	-0.001627572320195583	-0.07540154762315456	-1.877815030043774e-05	-0.2134908414593117	-0.2134908414593264	-0.01062011788040398	-6.241293682901748e-05	-0.06282038114639116	-0.04029662502927279	-0.2319869600858931	0.03785344189061034	-0.01124906710242906	-0.2935623714481724	-0.03565755752489302	0.01290770958713324	0.2044315644032592	-43.30030767059345	7.137439522288642	-7.314802172651637	7.166029136215009	-540.6086622089474	-69.99194238850106	-0.02384303139845419	1.427713487710921	0.1727050395286377	1.957545781125925	-6.399177818197986	-0.1806085086228103	-1.506199319256199	-0.001052040688182656	-5.536499886648649	-5.536499886646009	-0.8503578978910513	0.01427211819521032	-1.048092881532185	-0.9127402818353952	-3.18627501921708e-09	-1.69072426984529e-07	-6.357266941373756e-08	-1.66469600947423e-08	-1.182407632656532e-08	-2.019268861297598e-07	3.551944624223099e-09
1.02	-0.4344880267892851	-0.001874045686976901	0.5992508976235589	1.673328043960986	-0.3474042486491066	0.1334485198865149	-0.4363187045303479	1.49870509521104	1.4987050952112	0.05806666734429951	-0.1745217624456683	0.4337535999556237	0.2471916915670377	-0.1128526534505361	0.004210369545587361	0.07394361363637238	-0.1059067497540942	-0.003471953227057784	-0.09061493337406705	-0.0001447956116062792	-0.2688997122645248	-0.2688997122645225	-0.01902626868336817	-6.967615485275983e-05	-0.0733569943292493	-0.0494947536841431	-0.232285166653052	0.03792124847855048	-0.01127866499957107	-0.292708500142957	-0.03578870407384526	0.01292642980257674	0.2045565602663633	-43.31312203262244	7.101517294783008	-7.274767026973241	7.039725408578464	-540.5254044124613	-69.84419731803723	-0.0238640881236808	1.454474146924656	0.1779489530741594	1.956885010072671	-6.423172611175488	-0.1939334325586339	-1.553918727895119	-0.0328018191725612	-5.548807095972678	-5.548807095972861	-0.8219298934324158	-0.03123003950890797	-1.06047509937251	-0.936495445360748	-3.901585098495837e-09	-2.06967139057349e-07	-8.191388158541497e-08	-2.330783419886922e-08	-1.618031728465325e-08	-2.407300648707727e-07	3.771244974473247e-09
1.03	-0.4355445052856103	-0.001822977517125518	0.6000879125825979	1.67194891854548	-0.3474480197060973	0.1324665359706123	-0.4363208930670087	1.495739068271268	1.495739068271419	0.05783447328962116	-0.1745224472951176	0.4329669801238415	0.2466510163527355	-0.09843529044368615	0.006015209867435188	0.09344514852315167	-0.1699019349183879	-0.005274604157817274	-0.1057692982709647	-0.0002894822960000289	-0.3243002199226986	-0.32430021992272	-0.02740778274482058	-6.495503207792056e-05	-0.08398194014138513	-0.05862703384440753	-0.2323979249614785	0.03797352697711374	-0.01128049785408656	-0.2916974023913469	-0.03576612657990301	0.01297919724788357	0.2045871305053723	-43.25147855324006	7.030666000197197	-7.221047478873729	6.823170407914346	-540.1913360286848	-69.71150102134797	-0.02389070516635293	1.436530448427539	0.1835373545228961	1.944649147488508	-6.385232086196572	-0.172264565873072	-1.494325224539411	-0.004787679180037698	-5.534855034261296	-5.534855034264828	-0.8455685385073682	0.01663879122157576	-1.065761626707872	-0.8995549675258754	-4.618351011706346e-09	-2.448520524775359e-07	-1.002510286409692e-07	-2.996645638276406e-08	-2.053436445024469e-08	-2.794887029546732e-07	3.986356533770344e-09
1.04	-0.4364565775376902	-0.001753503787499239	0.601119515174406	1.669930333154902	-0.3475095840009039	0.1313333824349524	-0.4363244255877305	1.49221919976821	1.492219199768351	0.05751860281912884	-0.1745230218127292	0.4320736593730234	0.246019426203597	-0.08397140460234601	0.007891481500566474	0.1128611401902518	-0.2337987447682988	-0.007030600790117128	-0.1208488573259542	-0.0004135924246846209	-0.3796680249217333	-0.3796680249217793	-0.03576155184650229	-4.760978726810746e-05	-0.09469717813646832	-0.06767774065133454	-0.2325106832699284	0.03802580547567609	-0.01128233070860189	-0.2906863046397338	-0.03574354908595462	0.01303196469319273	0.2046177007443594	-43.19463846591323	6.959154316111614	-7.165507419774687	6.610638764414293	-539.9720638204165	-69.57893681043106	-0.02391998122121233	1.463778713822695	0.1922352153308574	1.939776366136851	-6.403497548298926	-0.1846025728667071	-1.538957559513505	-0.0286865080306315	-5.542266564144868	-5.542266564145231	-0.8163809014782634	-0.0287052151019089	-1.078533535961969	-0.9201807746932577	-5.652256227876115e-09	-2.821745777225445e-07	-1.16328578779278e-07	-3.61856766301111e-08	-2.477996654617055e-08	-3.134137111341519e-07	3.479924162945823e-09
1.05	-0.4372236621767377	-0.00166483055866082	0.6023447813491531	1.667273251939198	-0.3475884732152252	0.130049826377974	-0.4363287980159511	1.488145950584206	1.488145950584193	0.05711939222456271	-0.1745233666583782	0.4310727969212587	0.2452978035308369	-0.06942601459672533	0.009863099529391427	0.1321711097623257	-0.2976038486968278	-0.008740023256428905	-0.1358453926776602	-0.0004278559308252174	-0.4349632785863108	-0.4349632785863498	-0.04407400370390056	-2.09227372372786e-05	-0.1054840345724992	-0.07662774838594799	-0.2326520140733651	0.03807798737618924	-0.0112645525902855	-0.2893373427611318	-0.03582305160827681	0.01312580437327803	0.2047247227086647	-43.14747903364091	6.85281815030972	-7.083076485027859	6.35332099108969	-539.5628277588208	-69.44608957836455	-0.02395354560262912	1.452844577914424	0.2026068450829716	1.923453655935903	-6.366970430575663	-0.163004152561866	-1.477474927911484	0.01715932172606954	-5.520375358552638	-5.520375358551385	-0.837720837682943	0.0183753935879818	-1.080086013309443	-0.8794870844767216	-6.696072047263358e-09	-3.194795283370788e-07	-1.323355165139228e-07	-4.239116556694104e-08	-2.902217973366935e-08	-3.471876683791174e-07	2.950943544305005e-09
1.06	-0.4378447078289294	-0.001555844799849333	0.6037625165002594	1.66397852896112	-0.3476842350680196	0.1286168102864973	-0.4363323129985824	1.483520304745369	1.4835203047452	0.05663724840946462	-0.1745234406878215	0.4299638010419568	0.244487265518404	-0.05476360723180055	0.01195398749518017	0.1513549354621274	-0.3613270972431929	-0.01040512848467945	-0.1507408642258586	-0.0002438956916937486	-0.4901473558884252	-0.4901473558884549	-0.05234819595379342	6.553454089088979e-06	-0.11632386364396	-0.08546080858581431	-0.2327933448768079	0.03813016927670048	-0.0112467744719585	-0.2879883808825279	-0.0359025541305968	0.01321964405336136	0.2048317446729657	-43.10543155998775	6.745971472323109	-6.998958431539017	6.100142848603445	-539.2702942235316	-69.31440115817412	-0.02398992331322589	1.487182185683518	0.2160892027236149	1.914547591682403	-6.387126471866135	-0.1757391252544589	-1.518744798811986	0.01095824102389579	-5.520031291652261	-5.52003129165216	-0.8087289799771705	-0.02854738684279592	-1.08912806304795	-0.8967912677438263	-8.590503514450388e-09	-3.565175965452648e-07	-1.442067607271634e-07	-4.753815554003927e-08	-3.29391343698779e-08	-3.719974507683105e-07	9.384090898873584e-10
